<svg width="1024" height="1024" viewBox="0 0 1024 1024" fill="none" xmlns="http://www.w3.org/2000/svg">
  <rect width="1024" height="1024" fill="#6366F1"/>
  <circle cx="512" cy="512" r="256" fill="white" fill-opacity="0.1"/>
  <path d="M512 320C406.4 320 320 406.4 320 512C320 617.6 406.4 704 512 704C617.6 704 704 617.6 704 512C704 406.4 617.6 320 512 320ZM512 640C441.6 640 384 582.4 384 512C384 441.6 441.6 384 512 384C582.4 384 640 441.6 640 512C640 582.4 582.4 640 512 640Z" fill="white"/>
  <path d="M512 448C476.8 448 448 476.8 448 512C448 547.2 476.8 576 512 576C547.2 576 576 547.2 576 512C576 476.8 547.2 448 512 448Z" fill="white"/>
</svg> 